<!-- icon666.com - MILLIONS vector ICONS FREE --><svg id="svg4593" viewBox="0 0 16.933333 16.933334" xmlns="http://www.w3.org/2000/svg" xmlns:svg="http://www.w3.org/2000/svg"><clipPath id="clipPath5337"><path id="rect5339" d="m34.774 274.321h35.435v25.702h-35.435z"/></clipPath><clipPath id="clipPath4542"><path id="rect4544" d="m-535.214-48.848h501.574v185.586h-501.574z"/></clipPath><clipPath id="clipPath11017"><path id="rect11019" d="m36.669 153.503h29.654v28.999h-29.654z" transform="rotate(-90)" vector-effect="none"/></clipPath><clipPath id="clipPath11444"><path id="rect11446" d="m-143.933 265.779h28.84v29.104h-28.84z" transform="rotate(-90)" vector-effect="none"/></clipPath><clipPath id="clipPath11781"><rect id="rect11783" height="32.411" rx=".634" transform="rotate(-90)" width="32.941" x="-145.124" y="181.377"/></clipPath><g id="layer1" transform="translate(0 -280.067)"><g transform="matrix(.265 0 0 .265 0 280.067)"><path id="path3171" d="m32 9.0625c-3.956768.00377-7.47314 3.340701-7.979511 7.264936 1.785799 1.515108 3.041949 3.473399 3.851793 5.721372l8.200194-.000002c.897913-1.992971 2.153443-4.149302 3.938227-5.664175-.505376-3.924273-4.054025-7.3172485-8.010703-7.322131z" fill="#ffc861" vector-effect="none"/><path id="path3180" d="m38.63086 12.792969c-2.9537 2.126225-4.137707 4.55349-4.681641 5.830078h-1.949219c-1.559491.000609-2.518613 2.0929-1.708984 3.425759h5.78146c1.07469-2.269184 2.153443-4.149302 3.938227-5.664175-.158667-1.290007-.6736-2.527218-1.379843-3.591662z" fill="#ffab61" font-variant-ligatures="normal" font-variant-position="normal" font-variant-caps="normal" font-variant-numeric="normal" font-variant-alternates="normal" font-feature-settings="normal" text-indent="0" text-align="start" text-decoration-line="none" text-decoration-style="solid" text-decoration-color="#000000" text-transform="none" text-orientation="mixed" white-space="normal" shape-padding="0" isolation="auto" mix-blend-mode="normal" solid-color="#000000" solid-opacity="1" vector-effect="none"/><path id="path2999" d="m15.496094 12.734375c-7.1297108.008348-13.0639762 3.881439-13.496094 10.998047-.0020251 11.088662 0 22.178616 0 33.267578 0 2.770016 2.2300001 5 5 5h5.013672c2.77 0 4.594209-2.25988 5-5 4.713012-21.669495 26.105444-20.737564 29.972656 0 .405789 2.74012 2.230003 5 5 5h5.013672c2.770001 0 5-2.229984 5-5-.01749-11.087972.02253-22.181124 0-33.267578-.432117-7.116586-6.366382-10.990488-13.496094-10.998047-5.847786-.000178-10.811503 3.725743-12.685547 8.927734h-7.636718c-1.874044-5.201997-6.837762-8.927909-12.685547-8.927734z" fill="#666" vector-effect="none"/></g><path id="rect3154" d="m4.1742187 286.66056c-.3821988 0-.6898804.30768-.6898804.68988v.49145h-.490926c-.3821988 0-.6898804.30768-.6898804.68988 0 .38219.3076816.68988.6898804.68988h.490926v.49092c0 .3822.3076816.68988.6898804.68988s.6898804-.30768.6898804-.68988v-.49092h.4914429c.3821988 0 .6898804-.30769.6898804-.68988 0-.3822-.3076816-.68988-.6898804-.68988h-.4914429v-.49145c0-.3822-.3076816-.68988-.6898804-.68988z" fill="#d1dcff" vector-effect="none"/><path id="path3194" d="m18.484375 31.511719c-2.129455 0-3.248047 1.391187-3.248047 3.537109.01 1.352625.03711 2.723914.03711 3.964844.163014.03169.331351.05078.503906.05078 1.444531 0 2.607422-1.162886 2.607422-2.607422v-1.855469h1.857422c1.44453 0 2.607421-1.162924 2.607421-2.607421 0-.165206-.01973-.325903-.04883-.482422z" fill="#bfd2ff" transform="matrix(.265 0 0 .265 0 280.067)" font-variant-ligatures="normal" font-variant-position="normal" font-variant-caps="normal" font-variant-numeric="normal" font-variant-alternates="normal" font-feature-settings="normal" text-indent="0" text-align="start" text-decoration-line="none" text-decoration-style="solid" text-decoration-color="#000000" text-transform="none" text-orientation="mixed" white-space="normal" shape-padding="0" isolation="auto" mix-blend-mode="normal" solid-color="#000000" solid-opacity="1" vector-effect="none"/><path id="path3163" d="m4.1738281 286.39648c-.5241964 0-.953125.42893-.953125.95313v.22851h-.2265625c-.5241964 0-.9550781.42893-.9550781.95313 0 .52419.4308771.95508.9550781.95508h.2265625v.22656c0 .5242.4289286.95508.953125.95508.5241965 0 .9550781-.43088.9550781-.95508v-.22656h.2265626c.524201 0 .9550781-.43089.9550781-.95508 0-.5242-.4308817-.95313-.9550781-.95313h-.2265626v-.22851c0-.5242-.4308816-.95313-.9550781-.95313zm0 .5293c.2402012 0 .4257813.18363.4257813.42383v.49219a.26460978.26460978 0 0 0 .2636718.26562h.4921876c.2402011 0 .4257812.18363.4257812.42383 0 .24019-.1855847.42578-.4257812.42578h-.4921876a.26460978.26460978 0 0 0 -.2636718.26367v.49219c0 .2402-.1855801.42578-.4257813.42578-.2402011 0-.4257812-.18558-.4257812-.42578v-.49219a.26460978.26460978 0 0 0 -.2636719-.26367h-.4902344c-.2401965 0-.4257812-.18559-.4257812-.42578 0-.2402.1855801-.42383.4257812-.42383h.4902344a.26460978.26460978 0 0 0 .2636719-.26562v-.49219c0-.2402.1855801-.42383.4257812-.42383z" fill="#00003a" font-variant-ligatures="normal" font-variant-position="normal" font-variant-caps="normal" font-variant-numeric="normal" font-variant-alternates="normal" font-feature-settings="normal" text-indent="0" text-align="start" text-decoration-line="none" text-decoration-style="solid" text-decoration-color="#000000" text-transform="none" text-orientation="mixed" white-space="normal" shape-padding="0" isolation="auto" mix-blend-mode="normal" solid-color="#000000" solid-opacity="1" vector-effect="none"/><path id="circle3165" d="m12.902736 289.0791a.84166348.84166348 0 0 1 -.841664.84167.84166348.84166348 0 0 1 -.841663-.84167.84166348.84166348 0 0 1 .841663-.84166.84166348.84166348 0 0 1 .841664.84166z" fill="#55a1ff" vector-effect="none"/><path id="path3187" d="m24.226562 40.105469c-1.443409.88196-1.208438 3.02651.390626 3.578125 8.165085-6.102982 19.637299-1.332839 22.36914 13.316406.405789 2.74012 2.230003 5 5 5h5.013672c2.101211 0 3.892661-1.286551 4.634766-3.115234h-9.460938c-1.482823 0-1.848971-1.467811-2.080078-2.701172-.836555-4.113275-2.786654-8.710991-5.308594-11.841797-4.988555-6.140699-12.792656-8.347903-20.558594-4.236328z" fill="#4d4d4d" transform="matrix(.265 0 0 .265 0 280.067)" font-variant-ligatures="normal" font-variant-position="normal" font-variant-caps="normal" font-variant-numeric="normal" font-variant-alternates="normal" font-feature-settings="normal" text-indent="0" text-align="start" text-decoration-line="none" text-decoration-style="solid" text-decoration-color="#000000" text-transform="none" text-orientation="mixed" white-space="normal" shape-padding="0" isolation="auto" mix-blend-mode="normal" solid-color="#000000" solid-opacity="1" vector-effect="none"/><path id="circle3201" d="m11.333158 289.49967c.150126.2603.427635.42081.728121.42116.300196-.00043.577441-.16071.727604-.42065-.393033-.53348-1.1414-.51933-1.455725-.00051z" fill="#488bff" vector-effect="none"/><path id="circle3167" d="m12.060547 287.97266c-.607827 0-1.105466.49764-1.105469 1.10546-.000005.60784.497636 1.10743 1.105469 1.10743s1.107426-.49959 1.107422-1.10743c-.000003-.60782-.499594-1.10546-1.107422-1.10546zm0 .52929c.321845 0 .578124.25628.578125.57813.000002.32185-.256277.57617-.578125.57617s-.576174-.25432-.576172-.57617c.000001-.32185.254327-.57813.576172-.57813z" fill="#00003a" font-variant-ligatures="normal" font-variant-position="normal" font-variant-caps="normal" font-variant-numeric="normal" font-variant-alternates="normal" font-feature-settings="normal" text-indent="0" text-align="start" text-decoration-line="none" text-decoration-style="solid" text-decoration-color="#000000" text-transform="none" text-orientation="mixed" white-space="normal" shape-padding="0" isolation="auto" mix-blend-mode="normal" solid-color="#000000" solid-opacity="1" vector-effect="none"/><path id="path3169" d="m31.986328.98828125c-.553043.00541846-.996686.45868645-.990234 1.01171875v6.1269531c-3.474563.3982647-6.388342 2.8139689-7.441406 6.1132809-4.853481-3.580491-12.828253-3.249212-17.9258288.533204-3.5097315 2.712082-4.5956561 6.489621-4.63471858 9.271484.01948298 10.860789.00585938 22.027566.00585938 32.955078 0 3.306709 2.6933013 6 6 6h5.013672c3.253474 0 5.504494-2.606811 5.988281-5.853516 2.011839-9.273429 7.430455-15.048825 14.296874-15.048825 7.624519.265165 12.243319 7.315655 13.699178 15.048828.60963 3.653979 2.931596 5.804443 5.988323 5.853513h5.013672c3.306701 0 6-2.693291 6-6v-29.207031c.01913-1.352332-2.019135-1.352332-2 0v29.207031c0 2.233323-1.7667 4-4 4h-5.013672c-2.470465 0-3.693746-2.139989-4.017619-4.185544-1.99403-10.692775-8.661851-16.592287-15.632812-16.71875-6.970966-.126614-13.874912 5.54476-16.298829 16.689453-.319296 2.407444-1.875769 4.214841-4.023396 4.214841h-5.013672c-2.2333009 0-4-1.766677-4-4-.0052324-10.834948.0107833-22.28877-.0058594-32.945312.078125-3.570406 1.844426-6.199478 3.8496094-7.691407 7.380614-5.295451 17.66202-2.323748 20.396484 5.640625.143298.396475.51983.660516.941407.660156h7.636718c.42208.000064.798762-.264864.941407-.662109 2.717185-7.779312 12.803794-11.0497 20.396484-5.640625 2.218583 1.698104 3.645762 4.138841 3.845703 7.431641.05404 1.360546 2.106919 1.236007 1.996094-.121094-.232177-3.823748-1.987943-6.878583-4.626953-8.898437-7.761154-5.582773-19.004094-3.567181-23.134813 5.888671h-6.472656c-.808095-1.919351-2.008278-3.632938-3.498047-5.035156 1.376669-6.4503165 9.396777-7.2877819 12.482422-2.449219.730481 1.115868 2.404309.01892 1.673828-1.095703-1.418886-2.1694819-3.759022-3.6524155-6.425734-3.9550779v-6.1269531c.0065-.5606779-.449077-1.01717618-1.009766-1.01171875z" fill="#00003a" transform="matrix(.265 0 0 .265 0 280.067)" font-variant-ligatures="normal" font-variant-position="normal" font-variant-caps="normal" font-variant-numeric="normal" font-variant-alternates="normal" font-feature-settings="normal" text-indent="0" text-align="start" text-decoration-line="none" text-decoration-style="solid" text-decoration-color="#000000" text-transform="none" text-orientation="mixed" white-space="normal" shape-padding="0" isolation="auto" mix-blend-mode="normal" solid-color="#000000" solid-opacity="1" vector-effect="none"/><path id="circle3206" d="m14.424091 286.36713a.84166348.84166348 0 0 1 -.841664.84166.84166348.84166348 0 0 1 -.841663-.84166.84166348.84166348 0 0 1 .841663-.84167.84166348.84166348 0 0 1 .841664.84167z" fill="#ffab61" vector-effect="none"/><path id="path3208" d="m12.854512 286.78769c.150126.2603.427636.42081.728122.42116.300194-.00042.577439-.1607.727604-.42064-.393028-.53349-1.141399-.51934-1.455726-.00052z" fill="#ff8f64" vector-effect="none"/><path id="circle3210" d="m13.582031 285.26172c-.607832 0-1.105473.49764-1.105469 1.10547.000003.60782.497642 1.10547 1.105469 1.10547.607828 0 1.10742-.49764 1.107422-1.10547.000005-.60784-.499589-1.10547-1.107422-1.10547zm0 .5293c.321849 0 .578128.25432.578125.57617-.000001.32184-.256279.57617-.578125.57617-.321845 0-.57617-.25433-.576172-.57617-.000002-.32185.254324-.57617.576172-.57617z" fill="#00003a" font-variant-ligatures="normal" font-variant-position="normal" font-variant-caps="normal" font-variant-numeric="normal" font-variant-alternates="normal" font-feature-settings="normal" text-indent="0" text-align="start" text-decoration-line="none" text-decoration-style="solid" text-decoration-color="#000000" text-transform="none" text-orientation="mixed" white-space="normal" shape-padding="0" isolation="auto" mix-blend-mode="normal" solid-color="#000000" solid-opacity="1" vector-effect="none"/></g></svg>