<svg width="800" height="800" viewBox="0 0 800 800" fill="none" xmlns="http://www.w3.org/2000/svg">
<path d="M330.563 268.997C326.928 270.57 323.329 272.03 319.766 273.345L319.599 273.364C311.1 274.428 299.083 277.264 290.379 279.214C278.707 281.813 268.133 287.483 259.45 289.521C253.007 290.792 246.459 291.452 239.892 291.492C229.301 291.471 204.249 287.435 192.052 285.188L190.133 284.835C185.128 320.615 162.509 428.001 150.289 466.809C154.862 467.169 161.723 467.771 171.231 468.854C177.161 469.656 182.996 471.049 188.649 473.014C189.338 473.244 190.018 473.491 190.69 473.755C190.69 473.755 251.965 502.112 271.222 515.243C292.404 529.684 384.353 586.009 384.353 586.009C395.744 592.14 407.535 597.496 419.646 602.04C429.243 605.274 439.57 605.668 449.385 603.173C458.43 600.415 462.882 593.771 463.306 586.973L463.09 583.485C471.361 586.984 490.057 590.244 502.951 579.43C508.8 574.527 512.266 563.384 509.69 556.323L509.147 554.055C521.051 560.676 542.22 560.988 554.623 546.053C561.614 537.639 559.803 521.176 549.224 511.523L550.45 512.353C568.327 518.167 584.792 509.946 590.246 500.8C595.446 492.091 597.712 477.687 587.047 466.335C597.149 459.784 609.757 453.322 620.372 446.788C628.87 441.409 637.687 436.551 646.775 432.243C634.252 388.158 614.69 295.868 609.642 261.482C602.042 263.276 593.529 264.987 583.695 266.547C570.437 268.951 453.519 244.97 419.832 241.352C387.599 239.311 358.054 257.104 330.563 268.997Z" fill="#F7D2CA"/>
<path d="M232.368 513.893C236.986 503.211 243.33 493.36 251.144 484.736C255.173 479.733 260.087 475.513 265.641 472.286C270.481 469.896 275.892 468.908 281.264 469.434C286.636 469.96 291.753 471.978 296.037 475.26C304.486 481.926 307.773 494.554 305.195 504.94C302.617 515.325 282.911 544.814 270.986 552.209C267.548 554.18 263.717 555.367 259.767 555.686C255.817 556.004 251.846 555.446 248.137 554.051C239.751 550.531 235.488 545.819 231.71 537.539C228.811 531.191 229.229 521.226 232.368 513.893Z" fill="#F7D2CA"/>
<path d="M287.968 542.909C291.574 532.229 296.912 522.214 303.767 513.265C307.257 508.115 311.663 503.649 316.765 500.089C321.247 497.397 326.392 496.012 331.62 496.091C336.848 496.17 341.949 497.711 346.347 500.538C355.027 506.298 359.215 518.226 357.553 528.451C355.892 538.676 339.224 568.724 328.308 576.813C325.146 578.99 321.543 580.442 317.755 581.064C313.967 581.687 310.089 581.464 306.397 580.413C298.02 577.684 293.529 573.468 289.22 565.784C285.912 559.887 285.526 550.243 287.968 542.909Z" fill="#F7D2CA"/>
<path d="M335.896 581.031C337.573 571.737 344.477 555.55 351.91 548.988C355.251 546.207 359.314 544.434 363.626 543.877C367.937 543.32 372.318 544.002 376.256 545.843C384.067 549.545 387.954 560.483 387.809 569.077C387.664 577.671 381.054 596.143 373.045 604.083C370.707 606.246 367.921 607.866 364.884 608.827C361.848 609.788 358.637 610.066 355.48 609.642C352.287 609.185 349.226 608.061 346.496 606.342C343.766 604.623 341.429 602.348 339.638 599.666C336.064 594.157 334.726 587.492 335.896 581.031Z" fill="#F7D2CA"/>
<path d="M179.232 503.217C176.563 496.302 178.762 484.223 183.168 478.776C190.276 469.985 205.969 472.115 214.437 477.433C220.678 481.352 228.952 490.145 230.8 494.457C236.398 506.177 230.856 516.458 226.712 519.666C221.848 523.434 209.933 524.675 203.859 523.711C198.363 522.639 193.225 520.2 188.921 516.618C184.617 513.036 181.284 508.427 179.232 503.217Z" fill="#F7D2CA"/>
<path d="M5.65203 214.47C55.5086 228.066 138.467 249.729 159.68 256.174C139.225 335.771 122.984 447.787 105.692 493.042C88.2467 489.01 34.9412 475.319 3.53333 467.479" fill="#89705D"/>
<path d="M794.348 189.788C744.494 203.387 661.533 225.048 640.32 231.493C660.775 311.089 677.016 423.11 694.318 468.367C711.766 464.335 765.07 450.646 796.478 442.804" fill="#645D5C"/>
<path d="M622.549 246.839C629.252 244.712 636.83 242.444 641.979 240.96L642.651 240.763C659.156 307.92 672.98 394.308 686.985 445.308C686.366 445.486 686.041 445.583 686.041 445.583C677.295 448.226 663.784 450.258 653.649 452.923C642.306 428.281 610.192 277.262 608.483 251.822C613.074 249.897 617.77 248.234 622.549 246.839Z" fill="white"/>
<path d="M113.476 468.296C127.341 417.115 141.015 331.932 157.33 265.524C157.763 265.604 158.021 265.639 158.021 265.639C168.224 268.577 187.347 274.645 191.058 276.67C189.351 302.11 157.696 452.958 146.351 477.602C136.216 474.938 122.705 472.906 113.959 470.263L113.017 469.983C113.171 469.426 113.324 468.863 113.476 468.296Z" fill="white"/>
<path d="M406.474 329.783C398.142 328.108 388.812 329.999 380.625 331.579C375.574 332.535 370.587 333.799 365.69 335.363C360.961 336.897 355.075 338.613 351.429 342.153C349.498 344.315 347.94 346.784 346.821 349.458C345.433 352.185 344.072 354.923 342.705 357.66C340.251 362.571 337.781 367.482 335.054 372.248C329.946 381.678 323.009 389.995 314.649 396.713C310.891 399.875 306.282 401.857 301.401 402.41C296.864 403.273 292.181 402.971 287.792 401.533C283.46 399.75 278.878 395.694 278.297 390.779C278.186 387.848 278.303 384.912 278.646 381.999C278.79 378.443 278.907 374.886 278.995 371.327C279.27 360.131 279.255 348.918 280.152 337.749C280.625 331.862 281.36 326.013 282.357 320.201C283.418 313.992 284.46 307.368 287.396 301.722C292.812 291.31 303.893 284.077 314.798 280.528C325.968 276.686 336.892 272.165 347.51 266.991C369.542 256.716 392.683 245.563 417.605 246.443C419.221 246.499 420.807 246.66 422.41 246.848C422.996 246.92 423.582 246.993 424.167 247.065L425.085 247.184C425.48 247.236 425.334 247.216 424.652 247.123L425.425 247.229C428.435 247.647 431.441 248.088 434.442 248.553C442.024 249.723 449.572 250.992 457.122 252.286C474.849 255.319 492.548 258.51 510.264 261.601C526.495 264.437 542.734 267.283 559.047 269.599C564.757 270.412 570.483 271.211 576.232 271.67C581.593 271.94 586.967 271.497 592.211 270.353C598.518 269.237 604.791 267.953 611.031 266.503C617.545 264.987 614.787 254.961 608.266 256.475C601.699 258.001 595.096 259.342 588.457 260.5C586.585 260.828 584.707 261.114 582.838 261.441C580.91 261.776 583.869 261.495 582.872 261.441C582.222 261.406 581.523 261.508 580.858 261.504C576.209 261.373 571.572 260.96 566.973 260.269L564.881 259.998C563.485 259.814 565.626 260.1 564.744 259.978L563.635 259.827C561.838 259.577 560.045 259.319 558.254 259.053C554.542 258.505 550.835 257.933 547.132 257.338C538.479 255.953 529.84 254.485 521.205 252.992C488.35 247.314 455.529 240.462 422.419 236.439C398.155 233.492 374.068 243.388 352.495 253.256C341.434 258.315 330.532 263.817 319.133 268.063C313.316 269.928 307.608 272.115 302.034 274.614C296.347 277.478 291.146 281.22 286.622 285.702C281.766 290.464 278.061 296.272 275.791 302.684C273.763 309.099 272.347 315.692 271.56 322.374C269.926 334.088 269.034 345.894 268.891 357.72C268.769 363.6 268.685 369.479 268.507 375.357C268.4 378.917 268.256 382.474 268.074 386.028C267.417 390.862 268.327 395.78 270.672 400.058C273.017 404.337 276.672 407.75 281.1 409.797C286.184 412.36 291.865 413.502 297.543 413.103C303.285 413.074 308.958 411.848 314.2 409.505C319.439 406.591 324.2 402.891 328.316 398.532C336.028 390.533 342.454 381.386 347.363 371.418C350.134 366.145 352.731 360.781 355.426 355.467C356.449 353.45 357.348 350.53 359.245 349.204C361.105 348.055 363.106 347.152 365.199 346.52C374.66 343.077 384.526 340.87 394.553 339.956C396.485 339.778 398.428 339.648 400.369 339.64C401.121 339.64 401.875 339.64 402.627 339.692C403.017 339.716 403.404 339.75 403.792 339.789C402.321 339.642 403.391 339.744 403.723 339.811C405.051 340.143 406.456 339.951 407.647 339.275C408.837 338.599 409.722 337.491 410.118 336.18C410.471 334.851 410.289 333.436 409.61 332.24C408.931 331.043 407.81 330.161 406.487 329.783H406.474Z" fill="black"/>
<path d="M403.703 339.804C404.158 339.971 405.566 340.658 403.825 339.82C404.236 340.019 404.665 340.192 405.079 340.387C406.108 340.875 407.115 341.408 408.112 341.96C410.523 343.301 412.863 344.776 415.176 346.269C422.384 350.946 429.383 355.946 436.407 360.905C460.02 377.605 483.839 394.05 507.327 410.928C520.524 420.415 533.58 430.098 546.493 439.975C552.889 444.885 559.23 449.873 565.515 454.938C568.693 457.498 571.856 460.079 575.006 462.68C578.312 465.161 581.399 467.921 584.233 470.93C587.345 474.828 589.14 479.613 589.359 484.596C589.579 489.579 588.212 494.503 585.454 498.659C582.485 502.65 578.352 505.622 573.624 507.167C570.633 508.244 567.501 508.879 564.326 509.051C560.422 509.456 556.477 508.971 552.788 507.632C550.726 506.447 548.753 505.114 546.885 503.642C544.265 501.848 541.649 500.051 539.038 498.25C533.128 494.176 527.226 490.087 521.332 485.984C510.866 478.705 500.425 471.394 490.009 464.05C488.816 463.365 487.402 463.177 486.071 463.526C484.741 463.875 483.601 464.733 482.897 465.915C482.229 467.112 482.051 468.521 482.398 469.847C482.746 471.173 483.593 472.313 484.762 473.029C504.61 487.067 524.571 500.949 544.645 514.675C547.382 516.631 550.512 517.967 553.817 518.592C557.847 519.417 561.973 519.665 566.072 519.329C573.33 518.781 580.311 516.313 586.302 512.18C591.138 508.599 594.914 503.776 597.23 498.222C599.546 492.668 600.315 486.591 599.456 480.635C598.46 473.577 595.189 467.036 590.14 462.004C583.906 456.186 577.344 450.729 570.485 445.661C556.822 434.729 542.929 424.089 528.804 413.742C502.983 394.726 476.515 376.613 450.352 358.067C441.944 352.107 433.567 346.093 425.027 340.322C420.307 336.926 415.326 333.908 410.131 331.295C408.937 330.738 407.722 330.212 406.485 329.763C405.156 329.409 403.741 329.591 402.545 330.27C401.348 330.949 400.467 332.071 400.09 333.394C399.753 334.723 399.942 336.131 400.619 337.323C401.296 338.515 402.407 339.4 403.721 339.791L403.703 339.804Z" fill="black"/>
<path d="M381.73 590.489C392.248 596.296 403.161 601.357 414.388 605.636C427.276 610.619 444.457 612.785 456.955 605.519C460.256 603.612 463.036 600.922 465.051 597.685C467.066 594.449 468.252 590.766 468.506 586.962C468.495 585.587 467.944 584.271 466.971 583.298C465.998 582.325 464.682 581.774 463.306 581.763C461.936 581.79 460.629 582.346 459.659 583.315C458.69 584.285 458.134 585.592 458.107 586.962C457.618 592.996 452.371 597.097 446.381 598.598C438.226 600.374 429.743 599.916 421.827 597.272C415.807 595.241 409.923 592.83 404.208 590.054C398.387 587.383 392.573 584.638 386.979 581.51C381.13 578.243 375.881 587.22 381.73 590.489Z" fill="black"/>
<path d="M190.67 290.199C205.929 293.334 221.376 295.471 236.913 296.599C244.943 297.008 252.991 296.313 260.832 294.532C270.455 292.283 279.313 287.483 288.867 284.933C298.961 282.143 309.227 280.016 319.599 278.564C320.964 278.521 322.262 277.96 323.228 276.994C324.194 276.028 324.756 274.73 324.798 273.364C324.79 271.988 324.24 270.67 323.266 269.697C322.293 268.723 320.975 268.173 319.599 268.165C310.192 269.383 300.949 271.506 291.703 273.581C281.874 275.795 272.84 279.725 263.341 282.946C249.043 287.797 233.77 286.358 219.11 284.313C210.523 283.114 201.964 281.732 193.434 280.165C192.106 279.836 190.703 280.029 189.513 280.704C188.323 281.379 187.438 282.485 187.039 283.793C186.685 285.123 186.867 286.538 187.546 287.735C188.225 288.931 189.347 289.813 190.67 290.19V290.199Z" fill="black"/>
<path d="M593.024 468.692C602.19 463.059 611.717 458.057 620.933 452.514C630.13 446.735 639.63 441.456 649.395 436.699C650.577 435.995 651.435 434.855 651.784 433.524C652.133 432.193 651.945 430.778 651.26 429.585C650.542 428.418 649.402 427.573 648.077 427.225C646.752 426.878 645.343 427.055 644.146 427.72C634.382 432.477 624.882 437.756 615.686 443.534C606.47 449.078 596.943 454.084 587.775 459.712C582.081 463.207 587.298 472.206 593.024 468.692Z" fill="black"/>
<path d="M446.721 520.36C464.751 532.413 483.116 544.001 501.53 555.474C505.79 558.366 510.465 560.592 515.394 562.077C520.793 563.508 526.411 563.918 531.961 563.286C544.01 561.88 557.225 555.238 562.047 543.453C567.279 530.672 561.694 514.812 551.23 506.408C550.236 505.471 548.921 504.949 547.554 504.949C546.187 504.949 544.872 505.471 543.878 506.408C542.911 507.388 542.369 508.709 542.369 510.085C542.369 511.461 542.911 512.781 543.878 513.761C551.373 519.775 555.609 530.041 552.66 538.999C551.36 542.912 547.5 546.458 543.364 548.906C539.258 551.316 534.65 552.744 529.9 553.078C525.123 553.469 520.317 552.872 515.78 551.326C512.048 549.772 508.496 547.816 505.187 545.494C495.867 539.666 486.584 533.78 477.338 527.836C468.85 522.398 460.349 516.976 451.97 511.371C446.391 507.641 441.179 516.644 446.721 520.349V520.36Z" fill="black"/>
<path d="M413.023 557.914C427.899 567.723 442.702 577.913 458.135 586.83C464.452 590.11 471.447 591.87 478.564 591.969C487.967 592.602 497.296 589.932 504.94 584.419C513.334 578.02 518.118 565.175 514.688 554.931C512.578 548.613 502.531 551.321 504.66 557.695C505.55 561.018 505.464 564.527 504.411 567.802C503.359 571.077 501.385 573.98 498.726 576.163C492.434 580.499 484.777 582.393 477.188 581.49C474.065 581.241 470.978 580.649 467.984 579.727C467.41 579.551 466.838 579.367 466.272 579.166C466.012 579.075 464.322 578.392 465.384 578.854C464.47 578.447 463.585 577.979 462.735 577.452C455.707 573.166 448.736 568.785 441.823 564.311C433.937 559.233 426.083 554.106 418.261 548.93C412.659 545.236 407.445 554.237 413.014 557.909L413.023 557.914Z" fill="black"/>
<path d="M150.289 471.998C163.504 473.046 176.805 473.976 189.307 478.759C190.637 479.115 192.053 478.933 193.25 478.253C194.447 477.573 195.329 476.45 195.705 475.126C196.04 473.797 195.849 472.39 195.173 471.199C194.496 470.007 193.385 469.123 192.072 468.731C178.753 463.636 164.377 462.715 150.289 461.599C148.914 461.611 147.598 462.162 146.625 463.135C145.653 464.107 145.101 465.423 145.09 466.799C145.116 468.169 145.673 469.476 146.642 470.446C147.611 471.415 148.918 471.971 150.289 471.998Z" fill="black"/>
<path d="M85.7294 230.605C59.9952 223.716 34.2502 216.866 8.54412 209.868C7.77287 209.667 6.96596 209.644 6.18446 209.801C5.40296 209.958 4.66735 210.29 4.03328 210.773C3.39921 211.256 2.88329 211.877 2.52457 212.589C2.16585 213.3 1.97372 214.084 1.96272 214.881C1.99305 280.347 1.15034 345.812 0.509095 411.275C0.32712 429.893 0.157422 448.511 0 467.13C0.0129001 468.265 0.391177 469.365 1.07874 470.268C1.76631 471.171 2.72656 471.829 3.81713 472.143C32.112 479.21 60.2465 486.892 88.4958 494.132C93.7557 495.481 99.02 496.829 104.31 498.055C105.638 498.38 107.04 498.185 108.229 497.51C109.418 496.835 110.304 495.731 110.705 494.424C120.192 469.478 125.346 442.733 130.813 416.695C138.008 382.415 144.496 347.991 151.754 313.724C155.733 294.928 159.919 276.17 164.693 257.556C165.033 256.227 164.844 254.818 164.166 253.625C163.489 252.433 162.376 251.549 161.06 251.159C136.164 243.618 110.855 237.329 85.7294 230.605C79.2585 228.872 76.4985 238.9 82.9651 240.633C108.095 247.349 133.4 253.646 158.296 261.187L154.665 254.792C146 288.587 139.145 322.844 132.3 357.044C125.879 389.152 119.774 421.357 112.001 453.168C109.024 466.219 105.245 479.074 100.688 491.66L107.083 488.027C81.128 482.009 55.448 474.706 29.6618 468.012C21.9799 466.019 14.2893 464.053 6.59007 462.115L10.3985 467.13C10.9445 400.075 11.8153 333.032 12.2053 265.968C12.3049 248.941 12.3569 231.912 12.3613 214.881L5.77985 219.886C31.4859 226.894 57.2309 233.75 82.9716 240.633C89.4382 242.364 92.1981 232.336 85.7294 230.605Z" fill="black"/>
<path d="M156.639 270.654C162.873 272.457 169.074 274.371 175.241 276.397C178.12 277.34 180.995 278.299 183.844 279.326C184.975 279.733 186.095 280.158 187.213 280.591C188.538 281.105 186.307 280.158 187.412 280.667C187.756 280.83 188.099 280.983 188.434 281.161L185.859 276.672C185.752 278.221 185.583 279.764 185.397 281.306C185.341 281.757 185.282 282.207 185.226 282.658C185.046 284.103 185.391 281.516 185.178 283.015C185.011 284.19 184.845 285.362 184.669 286.534C183.846 292.019 182.912 297.487 181.944 302.948C179.292 317.896 176.353 332.772 173.304 347.634C166.667 379.993 159.633 412.328 151.244 444.284C149.559 450.711 147.809 457.128 145.861 463.484C145.124 465.884 144.362 468.278 143.528 470.646C143.177 471.645 142.815 472.641 142.43 473.627C142.261 474.06 142.076 474.481 141.912 474.91C142.345 473.766 142.215 474.208 141.862 474.981L147.733 472.598C137.016 469.821 125.963 468.404 115.341 465.258C108.912 463.354 106.165 473.387 112.577 475.286C123.192 478.432 134.241 479.836 144.969 482.624C146.073 482.918 147.243 482.844 148.303 482.415C149.362 481.985 150.252 481.222 150.839 480.241C154.625 471.148 157.659 461.76 159.912 452.171C163.937 437.275 167.525 422.26 170.989 407.224C178.419 374.945 185.297 342.521 191.214 309.937C193.504 298.954 195.187 287.853 196.257 276.685C196.269 275.775 196.036 274.878 195.583 274.089C195.131 273.299 194.475 272.645 193.683 272.194C188.852 269.927 183.843 268.06 178.705 266.614C172.306 264.51 165.872 262.519 159.403 260.641C152.962 258.78 150.211 268.811 156.639 270.667V270.654Z" fill="black"/>
<path d="M717.035 215.951C742.769 209.062 768.514 202.212 794.22 195.213L787.639 190.206C787.608 255.553 788.449 320.899 789.09 386.24C789.272 404.979 789.443 423.718 789.601 442.455L793.419 437.442C765.124 444.509 736.989 452.191 708.74 459.431C703.48 460.778 698.216 462.126 692.925 463.354L699.323 466.985C689.836 442.041 684.68 415.293 679.215 389.256C672.018 354.975 665.53 320.552 658.275 286.287C654.295 267.489 650.107 248.731 645.335 230.117L641.704 236.512C666.6 228.971 691.909 222.682 717.035 215.958C723.493 214.225 720.752 204.195 714.271 205.93C689.141 212.656 663.836 218.943 638.94 226.486C637.624 226.875 636.511 227.758 635.834 228.951C635.156 230.144 634.968 231.553 635.309 232.882C643.974 266.677 650.829 300.933 657.672 335.134C664.096 367.233 670.198 399.444 677.982 431.249C680.958 444.3 684.736 457.155 689.295 469.741C689.694 471.049 690.579 472.155 691.769 472.83C692.958 473.505 694.362 473.699 695.69 473.371C721.647 467.353 747.325 460.05 773.111 453.356C780.796 451.36 788.487 449.395 796.183 447.46C797.274 447.146 798.234 446.489 798.922 445.586C799.61 444.682 799.988 443.582 800 442.447C799.454 375.24 798.579 308.033 798.189 240.823C798.092 223.95 798.042 207.075 798.037 190.198C798.026 189.401 797.834 188.617 797.476 187.905C797.117 187.193 796.601 186.573 795.967 186.09C795.333 185.607 794.597 185.275 793.815 185.118C793.034 184.962 792.227 184.985 791.456 185.187C765.75 192.186 740.005 199.034 714.271 205.923C707.813 207.652 710.553 217.687 717.035 215.951Z" fill="black"/>
<path d="M640.593 235.947C634.037 237.839 627.508 239.815 621.004 241.876C615.813 243.274 610.745 245.099 605.855 247.333C605.063 247.782 604.406 248.436 603.953 249.225C603.5 250.015 603.267 250.912 603.279 251.822C604.181 261.393 605.597 270.908 607.521 280.327C610.216 295.383 613.21 310.387 616.316 325.364C623.091 358.028 630.268 390.668 638.825 422.917C641.726 433.85 644.442 445.209 649.161 455.538C649.744 456.522 650.634 457.288 651.695 457.718C652.755 458.149 653.927 458.22 655.031 457.921C665.748 455.144 676.803 453.729 687.423 450.583C693.824 448.686 691.106 438.647 684.659 440.555C674.043 443.703 662.995 445.118 652.267 447.895L658.138 450.278C658.036 449.959 657.9 449.652 657.733 449.362C658.664 450.542 658.01 450.048 657.748 449.362C657.408 448.495 657.074 447.629 656.756 446.74C656.011 444.68 655.328 442.598 654.667 440.51C652.971 435.146 651.446 429.728 649.971 424.301C645.976 409.585 642.389 394.759 638.938 379.91C631.451 347.735 624.51 315.403 618.524 282.914C617.326 276.415 616.169 269.887 615.147 263.349C614.939 262.015 614.737 260.679 614.542 259.342C614.462 258.785 614.386 258.226 614.306 257.669C614.163 256.668 614.443 258.802 614.248 257.21C614.031 255.405 613.814 253.603 613.682 251.794L611.106 256.283C611.406 256.095 611.728 255.945 612.064 255.834C610.716 256.12 611.815 255.942 612.19 255.806C613.273 255.414 614.339 255.009 615.42 254.632C618.416 253.588 621.438 252.615 624.462 251.657C630.736 249.67 637.036 247.767 643.361 245.947C649.778 244.095 647.044 234.058 640.597 235.919L640.593 235.947Z" fill="black"/>
<path d="M236.859 516.517C240.515 507.98 245.316 499.981 251.131 492.741C256.376 486.276 262.63 478.41 270.83 475.713C274.498 474.488 278.41 474.169 282.228 474.785C286.047 475.4 289.66 476.932 292.758 479.249C295.354 481.503 297.424 484.3 298.823 487.441C300.221 490.583 300.914 493.993 300.851 497.431C300.909 500.224 300.461 503.005 299.53 505.639C299.454 505.856 298.958 507.11 299.159 506.623C299.324 506.22 298.789 507.453 298.654 507.743C298.05 509.043 297.398 510.342 296.722 511.608C293.611 517.369 290.125 522.92 286.284 528.224C282.562 533.555 278.387 538.557 273.806 543.172C272.814 544.146 271.787 545.078 270.736 545.988C270.544 546.157 270.342 546.317 270.143 546.477C269.478 547.015 270.693 546.081 270.035 546.566C269.549 546.924 269.055 547.272 268.544 547.593C265.388 549.507 261.772 550.533 258.081 550.561C254.304 550.617 250.576 549.706 247.251 547.915C243.926 546.124 241.114 543.512 239.084 540.327C236.743 536.62 235.362 532.388 235.065 528.014C234.768 523.64 235.565 519.26 237.383 515.271C237.74 513.942 237.559 512.525 236.879 511.329C236.199 510.132 235.075 509.251 233.75 508.878C232.422 508.545 231.016 508.737 229.826 509.413C228.635 510.089 227.75 511.198 227.355 512.509C225.39 517.193 224.439 522.241 224.566 527.319C224.692 532.397 225.893 537.391 228.09 541.971C232.045 550.064 238.999 556.295 247.476 559.341C252.01 560.908 256.845 561.406 261.603 560.796C266.361 560.185 270.913 558.483 274.905 555.823C280.636 551.449 285.717 546.281 289.993 540.477C295.002 534.165 299.563 527.51 303.641 520.561C307.194 515.126 309.651 509.05 310.875 502.674C311.552 497.966 311.283 493.17 310.085 488.568C308.886 483.965 306.781 479.648 303.893 475.869C300.742 472.076 296.773 469.045 292.283 467.006C287.793 464.967 282.9 463.973 277.97 464.097C265.485 464.268 256.109 471.476 248.074 480.375C239.71 489.506 232.889 499.938 227.879 511.261C227.227 512.462 227.057 513.866 227.404 515.187C227.75 516.509 228.587 517.649 229.745 518.375C230.937 519.063 232.352 519.253 233.683 518.905C235.014 518.557 236.155 517.699 236.859 516.517Z" fill="black"/>
<path d="M292.983 544.292C295.877 535.852 299.905 527.845 304.954 520.49C309.419 513.928 314.783 506.161 322.37 502.996C325.619 501.502 329.193 500.847 332.761 501.092C336.33 501.336 339.78 502.473 342.796 504.397C345.811 506.321 348.296 508.971 350.021 512.104C351.747 515.238 352.659 518.754 352.673 522.331C352.846 524.85 352.581 527.381 351.888 529.809C351.244 531.924 350.472 533.996 349.575 536.016C346.914 541.954 343.868 547.711 340.457 553.252C337.341 558.593 333.744 563.639 329.709 568.325C328.929 569.192 328.126 570.047 327.283 570.858C326.871 571.254 326.449 571.635 326.022 572.014C325.805 572.216 325.556 572.413 325.318 572.604C325.951 572.097 325.415 572.539 325.069 572.757C320.581 575.722 315.127 576.852 309.831 575.916C304.534 574.979 299.799 572.048 296.599 567.725C294.114 564.418 292.484 560.549 291.853 556.462C291.222 552.374 291.611 548.193 292.983 544.292C295.008 537.899 284.967 535.162 282.955 541.527C281.4 546.163 280.826 551.071 281.271 555.94C281.716 560.809 283.17 565.532 285.539 569.809C289.887 577.403 296.988 583.034 305.372 585.537C309.968 586.812 314.797 586.996 319.477 586.074C324.156 585.153 328.555 583.151 332.324 580.229C337.533 575.665 342.022 570.34 345.641 564.434C349.906 558.114 353.707 551.493 357.016 544.623C360.147 538.904 362.189 532.654 363.039 526.189C363.363 521.56 362.761 516.913 361.267 512.52C359.774 508.126 357.419 504.075 354.341 500.603C350.96 497.077 346.808 494.383 342.211 492.733C337.614 491.082 332.697 490.52 327.846 491.09C322.108 491.639 316.621 493.715 311.956 497.102C307.322 500.785 303.232 505.106 299.809 509.935C292.51 519.48 286.815 530.151 282.948 541.527C280.801 547.873 290.843 550.606 292.983 544.292Z" fill="black"/>
<path d="M340.909 582.413C341.916 577.331 343.533 572.39 345.727 567.697C347.755 562.776 350.56 558.212 354.035 554.181C360.751 547.054 373.892 546.72 379.165 555.645C384.438 564.571 382.655 573.555 379.434 582.58C376.184 591.663 371.091 603.16 360.318 604.579C357.642 604.851 354.94 604.49 352.429 603.526C349.918 602.561 347.669 601.02 345.864 599.027C343.811 596.828 342.295 594.184 341.434 591.302C340.572 588.42 340.389 585.378 340.898 582.413C341.223 581.085 341.028 579.683 340.353 578.493C339.678 577.304 338.574 576.418 337.268 576.016C335.938 575.66 334.522 575.842 333.325 576.522C332.128 577.201 331.246 578.325 330.87 579.649C329.649 587.216 330.48 595.922 335.136 602.289C339.153 608.197 345.178 612.446 352.092 614.245C355.927 615.175 359.919 615.247 363.785 614.454C367.65 613.661 371.292 612.024 374.451 609.659C379.511 605.333 383.472 599.867 386.006 593.71C391.572 581.845 395.575 568.386 390.597 555.611C389.467 552.219 387.63 549.106 385.208 546.477C382.786 543.848 379.833 541.763 376.546 540.36C372.946 539.002 369.109 538.386 365.265 538.551C361.421 538.715 357.651 539.656 354.18 541.317C347.116 544.625 342.415 551.464 338.858 558.152C335.14 564.88 332.448 572.125 330.87 579.649C330.541 580.977 330.734 582.381 331.41 583.571C332.086 584.761 333.194 585.646 334.503 586.044C335.834 586.401 337.252 586.221 338.451 585.541C339.649 584.862 340.532 583.738 340.909 582.413Z" fill="black"/>
<path d="M184.245 501.835C182.893 497.419 182.927 492.694 184.342 488.298C185.503 484.116 187.078 481.01 190.906 479.277C197.919 476.103 207.834 478.718 214.01 483.441C221.339 489.043 229.574 497.344 227.732 507.444C227.373 509.465 226.639 511.402 225.566 513.152C224.863 514.43 223.811 515.482 222.533 516.185C218.528 517.952 214.193 518.847 209.816 518.811C204.768 519.114 199.755 517.786 195.518 515.024C190.483 511.91 186.544 507.301 184.253 501.842C183.852 500.535 182.966 499.43 181.777 498.755C180.588 498.08 179.186 497.884 177.858 498.209C176.534 498.584 175.41 499.465 174.73 500.662C174.051 501.86 173.87 503.276 174.227 504.606C179.468 517.676 191.387 527.992 205.739 529.129C211.953 529.639 218.204 528.838 224.088 526.779C226.854 525.799 229.375 524.232 231.476 522.184C233.578 520.136 235.21 517.657 236.261 514.918C237.715 511.303 238.399 507.424 238.27 503.53C238.14 499.636 237.199 495.811 235.507 492.301C232.697 486.971 228.842 482.262 224.173 478.454C215.009 470.221 202.193 465.141 189.838 468.668C186.426 469.663 183.308 471.477 180.755 473.951C178.203 476.425 176.293 479.485 175.191 482.864C172.42 489.794 172.08 497.458 174.227 504.606C174.624 505.916 175.509 507.023 176.7 507.699C177.89 508.375 179.294 508.567 180.622 508.237C181.945 507.858 183.066 506.975 183.744 505.777C184.421 504.58 184.601 503.164 184.245 501.835Z" fill="black"/>
<path d="M490 464.045L489.842 463.926L490.895 464.738C489.678 463.778 488.587 462.67 487.646 461.439L488.458 462.492C486.783 460.26 485.4 457.823 484.342 455.241L484.866 456.482C484.372 455.302 483.938 454.096 483.566 452.871C483.186 451.575 482.336 450.466 481.183 449.762C480.29 449.24 479.262 448.996 478.23 449.061C477.198 449.127 476.208 449.498 475.389 450.129C474.569 450.759 473.956 451.62 473.627 452.601C473.299 453.582 473.271 454.638 473.547 455.635C474.421 458.51 475.587 461.287 477.026 463.924C477.998 465.665 479.115 467.321 480.367 468.874C481.643 470.445 483.121 471.84 484.762 473.025C485.362 473.374 486.025 473.599 486.712 473.689C487.4 473.779 488.099 473.73 488.768 473.547C489.426 473.365 490.042 473.056 490.581 472.636C491.12 472.217 491.571 471.695 491.908 471.101C492.245 470.508 492.462 469.853 492.546 469.175C492.63 468.498 492.58 467.81 492.398 467.152L491.874 465.91C491.423 465.139 490.781 464.496 490.009 464.045H490Z" fill="black"/>
</svg>
